<svg width="16" height="16" viewBox="0 0 16 16" fill="none" xmlns="http://www.w3.org/2000/svg">
<g clip-path="url(#clip0_1320_19)">
<path d="M7.15296 7.90589C7.15296 7.43807 7.5322 7.05883 8.00002 7.05883C8.46783 7.05883 8.84707 7.43807 8.84707 7.90589V11.3882C8.84707 11.8561 8.46783 12.2353 8.00002 12.2353C7.5322 12.2353 7.15296 11.8561 7.15296 11.3882V7.90589Z" fill="#99A2AD"/>
<path d="M8.00002 3.76471C7.48022 3.76471 7.05884 4.18609 7.05884 4.70589C7.05884 5.22568 7.48022 5.64706 8.00002 5.64706C8.51981 5.64706 8.94119 5.22568 8.94119 4.70589C8.94119 4.18609 8.51981 3.76471 8.00002 3.76471Z" fill="#99A2AD"/>
<circle cx="8.02048" cy="8" r="7.25" stroke="#99A2AD" stroke-width="1.5"/>
</g>
<defs>
<clipPath id="clip0_1320_19">
<rect width="16" height="16" fill="white"/>
</clipPath>
</defs>
</svg>
