<svg width="32" height="32" viewBox="0 0 32 32" fill="none" xmlns="http://www.w3.org/2000/svg">
<rect width="32" height="32" fill="black"/>
<path d="M11.752 7.704C13.096 7.704 14.1467 8.104 14.904 8.904C15.672 9.704 16.056 10.8453 16.056 12.328V19H14.872V12.36C14.872 11.176 14.5787 10.28 13.992 9.672C13.4053 9.064 12.584 8.76 11.528 8.76C10.4187 8.76 9.55467 9.08533 8.936 9.736C8.31733 10.376 8.008 11.3413 8.008 12.632V19H6.824V7.8H7.96V9.688C8.67467 8.36533 9.93867 7.704 11.752 7.704Z" fill="white"/>
<path d="M14.824 13.8H19.384C20.568 13.8 21.6133 14.04 22.52 14.52C23.4267 14.9893 24.1307 15.6507 24.632 16.504C25.1333 17.3467 25.384 18.312 25.384 19.4C25.384 20.488 25.1333 21.4587 24.632 22.312C24.1307 23.1547 23.4267 23.816 22.52 24.296C21.6133 24.7653 20.568 25 19.384 25H14.824V13.8ZM19.32 23.976C20.3013 23.976 21.16 23.784 21.896 23.4C22.632 23.0053 23.2027 22.4667 23.608 21.784C24.0133 21.0907 24.216 20.296 24.216 19.4C24.216 18.504 24.0133 17.7147 23.608 17.032C23.2027 16.3387 22.632 15.8 21.896 15.416C21.16 15.0213 20.3013 14.824 19.32 14.824H16.008V23.976H19.32Z" fill="white"/>
</svg>
