<svg width="16" height="16" viewBox="0 0 16 16" fill="none" xmlns="http://www.w3.org/2000/svg">
<path d="M14.7431 13.5741L10.9101 9.73956C11.5972 8.80246 11.9652 7.66953 11.9601 6.50756C11.947 3.47441 9.49372 1.01757 6.46059 1.00006C5.00907 0.993488 3.61522 1.56771 2.58953 2.59481C1.56385 3.6219 0.991535 5.01655 1.00009 6.46806C1.0132 9.50148 3.4667 11.9585 6.50009 11.9761C7.6668 11.9811 8.80387 11.6088 9.74159 10.9146L9.74559 10.9116L13.5751 14.7431C13.7821 14.9603 14.0907 15.0482 14.3811 14.9728C14.6716 14.8973 14.8983 14.6704 14.9735 14.3799C15.0487 14.0894 14.9605 13.7809 14.7431 13.5741ZM6.49609 10.8781C4.06951 10.8641 2.10675 8.89866 2.09609 6.47206C2.08955 5.311 2.54743 4.19551 3.36782 3.37389C4.18822 2.55228 5.30303 2.09273 6.46409 2.09756C8.89068 2.11151 10.8534 4.07695 10.8641 6.50356C10.8706 7.66461 10.4128 8.78011 9.59236 9.60172C8.77197 10.4233 7.65716 10.8829 6.49609 10.8781Z" fill="#99A2AD"/>
</svg>
